<svg width="188" height="84" viewBox="0 0 188 84" fill="none" xmlns="http://www.w3.org/2000/svg">
<path d="M0.805224 52H27.5616L0.805224 25.0971V52Z" fill="#DCE2E5"/>
<path d="M54.2484 52V25.052L27.5616 52H54.2484Z" fill="#DCE2E5"/>
<path d="M41.2703 27.6533C48.8579 27.6533 55.0089 21.4629 55.0089 13.8266C55.0089 6.1904 48.8579 0 41.2703 0C33.6827 0 27.5318 6.1904 27.5318 13.8266C27.5318 21.4629 33.6827 27.6533 41.2703 27.6533Z" fill="#DCE2E5"/>
<path d="M13.7684 27.7133C21.3724 27.7133 27.5368 21.5095 27.5368 13.8567C27.5368 6.20384 21.3724 0 13.7684 0C6.16431 0 0 6.20384 0 13.8567C0 21.5095 6.16431 27.7133 13.7684 27.7133Z" fill="#DCE2E5"/>
<path d="M57.2655 32.6557L70 25.2571V40.0543L57.2655 32.6557Z" fill="#DCE2E5"/>
<path d="M94.8052 84H121.562L94.8052 57.0971V84Z" fill="#DCE2E5"/>
<path d="M148.248 84V57.052L121.562 84H148.248Z" fill="#DCE2E5"/>
<path d="M135.27 59.6533C142.858 59.6533 149.009 53.4629 149.009 45.8266C149.009 38.1904 142.858 32 135.27 32C127.683 32 121.532 38.1904 121.532 45.8266C121.532 53.4629 127.683 59.6533 135.27 59.6533Z" fill="#DCE2E5"/>
<path d="M107.768 59.7133C115.372 59.7133 121.537 53.5095 121.537 45.8567C121.537 38.2038 115.372 32 107.768 32C100.164 32 94 38.2038 94 45.8567C94 53.5095 100.164 59.7133 107.768 59.7133Z" fill="#DCE2E5"/>
<path d="M151.265 64.6557L164 57.2571V72.0543L151.265 64.6557Z" fill="#DCE2E5"/>
</svg>
