<svg width="172" height="35" viewBox="0 0 172 35" fill="none" xmlns="http://www.w3.org/2000/svg">
<g clip-path="url(#clip0_1_37)">
<path d="M0.508299 32.7063H17.3983L0.508299 15.7852V32.7063Z" fill="#DF4126"/>
<path d="M34.2444 32.7063V15.7569L17.3983 32.7063H34.2444Z" fill="#DF4126"/>
<path d="M26.052 17.393C30.8416 17.393 34.7244 13.4995 34.7244 8.69651C34.7244 3.89356 30.8416 0 26.052 0C21.2623 0 17.3795 3.89356 17.3795 8.69651C17.3795 13.4995 21.2623 17.393 26.052 17.393Z" fill="#DF4126"/>
<path d="M8.69131 17.4308C13.4914 17.4308 17.3826 13.5288 17.3826 8.71539C17.3826 3.90201 13.4914 0 8.69131 0C3.89123 0 0 3.90201 0 8.71539C0 13.5288 3.89123 17.4308 8.69131 17.4308Z" fill="#DF4126"/>
<path d="M36.1489 20.5394L44.1876 15.8859V25.1928L36.1489 20.5394Z" fill="#DF4126"/>
<path d="M54.4728 2.16469H58.5204C62.2542 2.16469 64.482 4.38601 64.482 7.718C64.482 11.05 62.2511 13.2682 58.5204 13.2682H54.4728V2.16469ZM58.489 11.7768C61.4792 11.7768 62.7594 10.556 62.7594 7.718C62.7594 4.87999 61.4792 3.65606 58.489 3.65606H56.164V11.7768H58.489Z" fill="#231F20"/>
<path d="M73.1544 9.96764H67.491C67.6008 11.5062 68.2503 12.1103 69.6873 12.1103C70.7479 12.1103 71.206 11.8397 71.5542 10.921L73.0101 11.459C72.4736 12.7931 71.2216 13.4286 69.6716 13.4286C67.3623 13.4286 65.8594 11.8554 65.8594 9.47681C65.8594 7.09816 67.4094 5.49667 69.5932 5.49667C71.7143 5.49667 73.1858 6.97231 73.1858 9.30376C73.1701 9.53973 73.1701 9.66873 73.1544 9.96764ZM67.5067 8.77831H71.5542C71.4915 7.31841 70.9079 6.76465 69.5932 6.76465C68.3287 6.76465 67.6479 7.40021 67.5067 8.77831Z" fill="#231F20"/>
<path d="M82.0277 8.58954V13.2682H80.4118V8.69966C80.4118 7.55753 79.7843 6.97231 78.752 6.97231C77.4719 6.97231 76.6498 7.91622 76.6498 9.68447V13.2682H75.0339V5.66343H76.6498V7.50405C77.0138 6.28326 77.8201 5.50611 79.3074 5.50611C81.0927 5.49668 82.0277 6.57587 82.0277 8.58954Z" fill="#231F20"/>
<path d="M97.6564 2.16469L93.6371 13.2682H91.3591L87.3084 2.16469H89.2224L91.6446 9.19049L92.4824 11.9215L93.3045 9.20622L95.7393 2.16469H97.6564Z" fill="#231F20"/>
<path d="M104.929 9.96764H99.2817C99.3915 11.5062 100.041 12.1103 101.462 12.1103C102.523 12.1103 102.981 11.8397 103.329 10.921L104.785 11.459C104.249 12.7931 102.997 13.4286 101.447 13.4286C99.1374 13.4286 97.6344 11.8554 97.6344 9.47681C97.6344 7.09816 99.1844 5.49667 101.368 5.49667C103.489 5.49667 104.961 6.97231 104.961 9.30376C104.948 9.53973 104.948 9.66873 104.929 9.96764ZM99.2817 8.77831H103.329C103.267 7.31841 102.683 6.76465 101.368 6.76465C100.107 6.76465 99.426 7.40021 99.2848 8.77831H99.2817Z" fill="#231F20"/>
<path d="M106.119 11.1255L107.669 10.6661C107.841 11.7768 108.393 12.126 109.517 12.126C110.458 12.126 110.973 11.8114 110.973 11.223C110.973 10.6347 110.753 10.4301 109.849 10.2791L108.475 10.0274C107.242 9.81976 106.338 9.16846 106.338 7.80609C106.338 6.39338 107.462 5.50611 109.25 5.50611C111.038 5.50611 112.112 6.22033 112.388 7.80609L110.91 8.18051C110.784 6.99119 110.282 6.7678 109.313 6.7678C108.393 6.7678 107.951 7.08243 107.951 7.7117C107.951 8.23714 108.174 8.50773 108.892 8.61785L110.599 8.93249C111.785 9.137 112.56 9.80402 112.56 11.0248C112.56 12.5162 111.359 13.4538 109.398 13.4538C107.603 13.4286 106.401 12.5225 106.119 11.1255Z" fill="#231F20"/>
<path d="M116.511 7.09816V11.8177H118.581V13.2619H117.013C116.732 13.2793 116.451 13.2368 116.188 13.137C115.924 13.0373 115.685 12.8827 115.486 12.6834C115.287 12.4841 115.133 12.2447 115.033 11.981C114.933 11.7173 114.89 11.4353 114.907 11.1538V7.09816H113.31V5.66343H114.907V3.32254H116.523V5.66343H118.832V7.1076L116.511 7.09816Z" fill="#231F20"/>
<path d="M127.646 2.16469V13.2682H126.033V11.6667C125.804 12.2038 125.418 12.6591 124.927 12.9733C124.435 13.2876 123.861 13.4462 123.278 13.4286C121.098 13.4286 119.736 11.8554 119.736 9.46107C119.736 7.0667 121.082 5.49667 123.231 5.49667C123.822 5.47568 124.406 5.63378 124.905 5.95034C125.405 6.26691 125.798 6.72723 126.033 7.27121V2.16469H127.646ZM126.096 9.46107C126.096 7.76519 125.337 6.97231 123.724 6.97231C122.111 6.97231 121.365 7.76519 121.365 9.46107C121.365 11.157 122.124 11.9561 123.724 11.9561C125.324 11.9561 126.096 11.1601 126.096 9.46107Z" fill="#231F20"/>
<path d="M137.429 5.66343V13.2776H135.817V11.7044C135.585 12.2336 135.2 12.6812 134.713 12.9895C134.225 13.2979 133.657 13.453 133.081 13.4349C130.884 13.4349 129.538 11.8617 129.538 9.46736C129.538 7.07299 130.881 5.50296 133.018 5.50296C133.607 5.4787 134.189 5.63371 134.689 5.94762C135.188 6.26153 135.582 6.71965 135.817 7.26177V5.66343H137.429ZM135.895 9.47051C135.895 7.77463 135.136 6.98175 133.523 6.98175C131.91 6.98175 131.154 7.76519 131.154 9.46107C131.154 11.157 131.901 11.9561 133.514 11.9561C135.126 11.9561 135.886 11.1601 135.886 9.46107L135.895 9.47051Z" fill="#231F20"/>
<path d="M146.896 8.58954V13.2682H145.273V8.69966C145.273 7.55753 144.646 6.97231 143.614 6.97231C142.33 6.97231 141.508 7.91622 141.508 9.68447V13.2682H139.896V5.66343H141.508V7.50405C141.872 6.28326 142.679 5.50611 144.166 5.50611C145.964 5.49668 146.896 6.57587 146.896 8.58954Z" fill="#231F20"/>
<path d="M148.603 11.1255L150.153 10.6661C150.328 11.7768 150.88 12.126 152.004 12.126C152.945 12.126 153.46 11.8114 153.46 11.223C153.46 10.6347 153.24 10.4301 152.336 10.2791L150.962 10.0274C149.726 9.81976 148.825 9.16846 148.825 7.80609C148.825 6.39338 149.949 5.50611 151.737 5.50611C153.525 5.50611 154.599 6.22033 154.875 7.80609L153.397 8.18051C153.271 6.99119 152.769 6.7678 151.8 6.7678C150.88 6.7678 150.438 7.08243 150.438 7.7117C150.438 8.23714 150.661 8.50773 151.379 8.61785L153.086 8.93249C154.272 9.137 155.047 9.80402 155.047 11.0248C155.047 12.5162 153.846 13.4538 151.885 13.4538C150.09 13.4286 148.888 12.5225 148.603 11.1255Z" fill="#231F20"/>
<path d="M159.945 9.82605L158.489 11.3803V13.2682H156.883V2.16469H158.496V9.9519L159.635 8.28749L161.843 5.66343H163.883L160.962 8.74685L164.077 13.2682H162.132L159.945 9.82605Z" fill="#231F20"/>
<path d="M171.981 9.96764H166.333C166.443 11.5062 167.093 12.1103 168.514 12.1103C169.575 12.1103 170.033 11.8397 170.397 10.921L171.853 11.459C171.316 12.7931 170.064 13.4286 168.514 13.4286C166.205 13.4286 164.702 11.8554 164.702 9.47681C164.702 7.09816 166.252 5.49667 168.436 5.49667C170.557 5.49667 172.028 6.97231 172.028 9.30376C172 9.53973 172 9.66873 171.981 9.96764ZM166.333 8.77831H170.375C170.312 7.31841 169.728 6.76465 168.414 6.76465C167.159 6.76465 166.478 7.40021 166.337 8.77831H166.333Z" fill="#231F20"/>
<path d="M56.164 22.7544V25.6553H61.0996V27.2285H56.164V32.3067H54.4885V21.2001H61.3537V22.7544H56.164Z" fill="#231F20"/>
<path d="M62.8064 22.0244C62.8064 21.3417 63.2018 20.9767 63.914 20.9767C64.6263 20.9767 65.0059 21.3417 65.0216 22.0244C65.0373 22.7072 64.642 23.1194 63.914 23.1194C63.7664 23.1337 63.6174 23.1153 63.4776 23.0656C63.3378 23.0159 63.2106 22.936 63.105 22.8315C62.9994 22.7271 62.9179 22.6007 62.8663 22.4613C62.8147 22.3218 62.7943 22.1727 62.8064 22.0244ZM63.092 24.6894H64.7047V32.3036H63.092V24.6894Z" fill="#231F20"/>
<path d="M67.1898 21.2001H68.8025V32.3036H67.1898V21.2001Z" fill="#231F20"/>
<path d="M83.6562 27.7036V32.3036H82.0434V27.798C82.0434 26.6087 81.4159 26.0046 80.3962 26.0046C78.9591 26.0046 78.2782 27.0838 78.2782 29.1132V32.3036H76.6655V27.7351C76.6655 26.5929 76.0379 26.0046 75.0025 26.0046C73.7224 26.0046 72.9003 26.9485 72.9003 28.7167V32.3036H71.2844V24.6894H72.9003V26.53C73.2643 25.3061 74.0706 24.5289 75.5579 24.5289C77.0451 24.5289 77.8986 25.2432 78.1841 26.5772C78.6265 25.2432 79.5427 24.5415 80.9515 24.5415C82.7212 24.5415 83.6562 25.6396 83.6562 27.7036Z" fill="#231F20"/>
<path d="M93.9696 28.4965C93.9696 30.8751 92.6079 32.4609 90.4241 32.4609C89.8425 32.4781 89.2691 32.3196 88.7784 32.006C88.2877 31.6924 87.9024 31.2381 87.6724 30.7021V35H86.0596V24.6894H87.6724V26.3066C87.9091 25.7647 88.3029 25.3066 88.8025 24.9918C89.3022 24.6771 89.8846 24.5202 90.4743 24.5415C92.6236 24.5415 93.9696 26.1147 93.9696 28.4965ZM92.3381 28.4965C92.3381 26.7975 91.5788 26.0046 89.9817 26.0046C88.3846 26.0046 87.6096 26.7975 87.6096 28.4965C87.6096 30.1955 88.3689 30.9853 89.9817 30.9853C91.5944 30.9853 92.3381 30.205 92.3381 28.4965Z" fill="#231F20"/>
<path d="M102.78 24.6894V32.3036H101.164V30.463C100.8 31.6837 99.9939 32.4609 98.5098 32.4609C96.7214 32.4609 95.7863 31.3817 95.7863 29.368V24.6894H97.4022V29.2611C97.4022 30.4032 98.0298 30.9884 99.0621 30.9884C100.342 30.9884 101.164 30.0445 101.164 28.2762V24.6894H102.78Z" fill="#231F20"/>
<path d="M105.246 21.2001H106.859V32.3036H105.246V21.2001Z" fill="#231F20"/>
<path d="M108.045 33.5244H109.36V24.6894H110.973V32.8888C110.989 33.1716 110.945 33.4547 110.844 33.7192C110.743 33.9837 110.587 34.2237 110.386 34.4233C110.186 34.6229 109.945 34.7775 109.681 34.8769C109.416 34.9763 109.133 35.0183 108.852 35H108.045V33.5244ZM109.059 22.0244C109.043 21.3417 109.454 20.9767 110.166 20.9767C110.878 20.9767 111.258 21.3417 111.274 22.0244C111.29 22.7072 110.894 23.1194 110.166 23.1194C110.018 23.1343 109.869 23.1163 109.729 23.0668C109.589 23.0172 109.462 22.9374 109.356 22.8328C109.25 22.7283 109.169 22.6016 109.117 22.4619C109.066 22.3222 109.046 22.1728 109.059 22.0244Z" fill="#231F20"/>
<path d="M120.172 29.0031H114.499C114.609 30.5416 115.259 31.1457 116.696 31.1457C117.756 31.1457 118.214 30.8751 118.563 29.9564L120.018 30.4944C119.479 31.8253 118.23 32.4609 116.68 32.4609C114.371 32.4609 112.868 30.9066 112.868 28.5122C112.868 26.1179 114.405 24.5415 116.589 24.5415C118.707 24.5415 120.178 26.0172 120.178 28.3486C120.172 28.5751 120.172 28.701 120.172 29.0031ZM114.524 27.8137H118.575C118.512 26.3538 117.926 25.8001 116.614 25.8001C115.303 25.8001 114.659 26.4293 114.524 27.8137Z" fill="#231F20"/>
</g>
<defs>
<clipPath id="clip0_1_37">
<rect width="172" height="35" fill="white"/>
</clipPath>
</defs>
</svg>
